<svg width="24" height="24" viewBox="0 0 24 24" fill="none" xmlns="http://www.w3.org/2000/svg">
<path d="M12 11.8569C10.4279 11.8569 9.08218 11.2972 7.96269 10.1777C6.84319 9.0582 6.28345 7.71243 6.28345 6.14038C6.28345 4.56833 6.84319 3.22256 7.96269 2.10307C9.08218 0.983574 10.4279 0.423828 12 0.423828C13.5721 0.423828 14.9178 0.983574 16.0373 2.10307C17.1568 3.22256 17.7166 4.56833 17.7166 6.14038C17.7166 7.71243 17.1568 9.0582 16.0373 10.1777C14.9178 11.2972 13.5721 11.8569 12 11.8569ZM20.5748 23.29H3.42517C2.63915 23.29 1.96602 23.0099 1.4058 22.4497C0.845579 21.8895 0.565944 21.2168 0.566897 20.4318V19.2884C0.566897 18.4786 0.775551 17.734 1.19286 17.0547C1.61017 16.3754 2.16372 15.8576 2.85352 15.5012C4.33029 14.7628 5.83089 14.2088 7.3553 13.8391C8.87972 13.4695 10.4279 13.2851 12 13.2861C13.5721 13.2861 15.1203 13.4709 16.6447 13.8406C18.1691 14.2102 19.6697 14.7638 21.1465 15.5012C21.8372 15.8585 22.3913 16.3768 22.8086 17.0561C23.2259 17.7355 23.4341 18.4796 23.4331 19.2884V20.4318C23.4331 21.2178 23.153 21.8909 22.5928 22.4511C22.0325 23.0114 21.3599 23.291 20.5748 23.29ZM3.42517 20.4318H20.5748V19.2884C20.5748 19.0264 20.5091 18.7882 20.3776 18.5739C20.2461 18.3595 20.0737 18.1928 19.8603 18.0737C18.574 17.4306 17.2759 16.9485 15.9659 16.6274C14.6558 16.3063 13.3339 16.1453 12 16.1443C10.6661 16.1443 9.34419 16.3054 8.03414 16.6274C6.7241 16.9494 5.42597 17.4315 4.13974 18.0737C3.92537 18.1928 3.75245 18.3595 3.62096 18.5739C3.48948 18.7882 3.42422 19.0264 3.42517 19.2884V20.4318ZM12 8.99866C12.786 8.99866 13.4591 8.71854 14.0194 8.15832C14.5796 7.5981 14.8592 6.92545 14.8583 6.14038C14.8583 5.35435 14.5782 4.68123 14.0179 4.12101C13.4577 3.56079 12.7851 3.28115 12 3.2821C11.214 3.2821 10.5408 3.56221 9.98063 4.12244C9.42041 4.68266 9.14077 5.35531 9.14172 6.14038C9.14172 6.92641 9.42184 7.59953 9.98206 8.15975C10.5423 8.71997 11.2149 8.99961 12 8.99866Z" fill="#9D9D9D"/>
</svg>
