<svg width="43" height="40" viewBox="0 0 43 40" fill="none" xmlns="http://www.w3.org/2000/svg">
<path d="M0.541665 36.6698L1.23898 37.4374C2.00465 38.2742 3.28989 38.3226 4.11026 37.548L21.7687 21.8219C22.589 21.0474 22.6437 19.7403 21.878 18.9104L20.4561 17.3544C19.6904 16.5176 18.4051 16.4692 17.5848 17.2438L0.651047 33.7583C-0.169319 34.5328 -0.224011 35.8399 0.541665 36.6698Z" fill="#3B47F2"/>
<path d="M19.6285 36.6353H39.2011C39.9487 36.6353 40.5547 36.0222 40.5547 35.266V32.5827C40.5547 31.8265 39.9487 31.2134 39.2011 31.2134L19.6285 31.2134C18.8809 31.2134 18.2749 31.8265 18.2749 32.5827V35.266C18.2749 36.0222 18.8809 36.6353 19.6285 36.6353Z" fill="#3B47F2"/>
<path d="M17.3318 40.0029H41.4916C42.1297 40.0029 42.647 39.4797 42.647 38.8342V35.9573C42.647 35.3118 42.1297 34.7885 41.4916 34.7885H17.3318C16.6937 34.7885 16.1765 35.3118 16.1765 35.9573V38.8342C16.1765 39.4797 16.6937 40.0029 17.3318 40.0029Z" fill="#2C32D6"/>
<path d="M35.0108 16.3239L35.0586 16.2824L33.2333 14.2838L25.5424 5.86052L24.3597 4.56729L24.346 4.58112C22.9309 3.14959 20.6475 3.08735 19.164 4.48431L14.5836 8.79274C13.107 10.1828 12.9908 12.4995 14.2897 14.0417L14.276 14.0555L15.821 15.743L23.1496 23.772L23.8401 24.5327L24.5511 25.3142L24.9749 25.7775L25.0228 25.736C26.4448 26.8495 28.4889 26.801 29.8561 25.5217L34.4365 21.2132C35.797 19.9338 36.002 17.866 35.0108 16.3377V16.3239Z" fill="#C9CAFB"/>
<path d="M24.3594 4.56029L24.1884 4.37356C22.9374 2.99735 20.8181 2.92128 19.4645 4.19376L14.2825 9.06928C12.9289 10.3418 12.8469 12.4856 14.1048 13.8618L14.2757 14.0485L24.3594 4.56029Z" fill="#3B47F2"/>
<path d="M13.2571 12.2575L22.6845 3.3917C23.3886 2.7278 23.4297 1.61438 22.7802 0.90207L22.4726 0.563204C21.8231 -0.149106 20.7225 -0.190599 20.0183 0.466385L10.5909 9.33222C9.88678 9.99612 9.84576 11.1095 10.4952 11.8218L10.8029 12.1607C11.4523 12.873 12.553 12.9145 13.2571 12.2575Z" fill="#2C32D6"/>
<path d="M24.6602 25.4179L24.8311 25.6047C26.0821 26.9809 28.2014 27.0569 29.555 25.7845L34.737 20.9089C36.0906 19.6365 36.1726 17.4926 34.9147 16.1164L34.7438 15.9297L24.6602 25.4179Z" fill="#3B47F2"/>
<path d="M28.8714 29.3596L38.2988 20.4937C39.0029 19.8298 39.0439 18.7164 38.3945 18.0041L38.0868 17.6653C37.4374 16.9529 36.3367 16.9115 35.6326 17.5684L26.2052 26.4343C25.501 27.0982 25.46 28.2116 26.1095 28.9239L26.4171 29.2628C27.0666 29.9751 28.1672 30.0166 28.8714 29.3596Z" fill="#2C32D6"/>
</svg>
