<svg width="24" height="25" viewBox="0 0 24 25" fill="none" xmlns="http://www.w3.org/2000/svg">
<path d="M22.6666 21.8332V10.4998C22.6666 10.2928 22.6184 10.0887 22.5258 9.90355C22.4333 9.71841 22.2988 9.55737 22.1333 9.43317L12.7999 2.43317C12.5691 2.26007 12.2884 2.1665 11.9999 2.1665C11.7114 2.1665 11.4307 2.26007 11.1999 2.43317L1.86659 9.43317C1.70099 9.55737 1.56659 9.71841 1.47402 9.90355C1.38145 10.0887 1.33325 10.2928 1.33325 10.4998V21.8332C1.33325 22.1868 1.47373 22.5259 1.72378 22.776C1.97383 23.026 2.31296 23.1665 2.66659 23.1665H7.99992C8.35354 23.1665 8.69268 23.026 8.94273 22.776C9.19278 22.5259 9.33325 22.1868 9.33325 21.8332V17.8332C9.33325 17.4795 9.47373 17.1404 9.72378 16.8904C9.97383 16.6403 10.313 16.4998 10.6666 16.4998H13.3333C13.6869 16.4998 14.026 16.6403 14.2761 16.8904C14.5261 17.1404 14.6666 17.4795 14.6666 17.8332V21.8332C14.6666 22.1868 14.8071 22.5259 15.0571 22.776C15.3072 23.026 15.6463 23.1665 15.9999 23.1665H21.3333C21.6869 23.1665 22.026 23.026 22.2761 22.776C22.5261 22.5259 22.6666 22.1868 22.6666 21.8332Z" stroke="#9D9D9D" stroke-width="2.66667" stroke-linecap="round" stroke-linejoin="round"/>
</svg>
