<svg width="164" height="41" viewBox="0 0 164 41" fill="none" xmlns="http://www.w3.org/2000/svg">
<g clip-path="url(#clip0_125_2435)">
<path d="M58.316 24.11L48.0341 25.4239L45.7781 7.3119L56.142 5.99101L56.8735 11.8624L53.1409 12.3396L53.9339 18.7158L57.5845 18.2524L58.316 24.1238V24.11ZM67.969 39.7047C65.1114 40.0712 62.6776 40.1681 60.7293 40.0712C58.733 39.9398 57.1402 39.6355 55.8959 39.11C54.6107 38.5913 53.6809 37.8997 53.0725 37.0422C52.4572 36.1847 52.0881 35.2095 51.9377 34.0339C51.8078 32.9827 51.9308 31.9454 52.3547 30.9564C52.7375 29.9675 53.469 29.0685 54.5833 28.2455C55.6635 27.4295 57.1675 26.6826 59.0612 26.0118C60.9207 25.3894 63.2587 24.8776 66.0753 24.518C68.8919 24.1584 71.2436 24.0685 73.2398 24.1999C75.2019 24.3728 76.8016 24.7255 78.0868 25.2441C79.3311 25.7697 80.3018 26.4544 80.9513 27.305C81.5666 28.1625 81.9767 29.1307 82.1066 30.1819C82.2502 31.3575 82.1271 32.3949 81.7443 33.3769C81.3205 34.3658 80.5479 35.2787 79.4746 36.0947C78.3945 36.9108 76.8836 37.6162 75.0241 38.2386C73.1168 38.8195 70.7787 39.3313 67.9622 39.6909L67.969 39.7047ZM67.2785 34.1722C69.931 33.8333 71.7769 33.4253 72.7203 32.9205C73.6295 32.464 74.067 31.897 73.985 31.2261C73.9098 30.6383 73.3492 30.2026 72.3443 29.8983C71.3051 29.6909 69.4183 29.7185 66.7658 30.0574C64.1133 30.3963 62.2333 30.8458 61.324 31.3091C60.3806 31.8555 59.9909 32.4156 60.0593 33.0035C60.1413 33.6743 60.6609 34.1169 61.7 34.3313C62.6981 34.5871 64.544 34.5249 67.2785 34.1722ZM68.3176 10.3963L64.8379 10.8389L65.6241 17.1736C66.13 17.1528 66.8341 17.0629 67.7297 16.8624C68.5569 16.7586 69.3363 16.5719 69.9857 16.3645L70.6967 22.0698C70.0199 22.3672 69.2474 22.5954 68.3382 22.7545C67.3947 22.962 66.5265 23.0726 65.6925 23.1763L59.5192 23.9647L57.2632 5.8527L67.5861 4.53873L68.3176 10.4101V10.3963ZM82.9954 7.24965L83.8978 14.5042C83.5696 14.5456 83.1594 14.6425 82.7014 14.6978C82.2092 14.8015 81.717 14.9053 81.2726 15.0505C80.7872 15.1957 80.336 15.2994 79.9327 15.4378C79.6524 15.5553 79.4541 15.666 79.3037 15.7766L80.0899 22.0698L72.8775 22.9896L70.4916 3.82642L77.704 2.90664L78.4423 8.8195C78.8594 8.4668 79.3721 8.19018 80.0557 7.89281C80.7804 7.63001 81.7648 7.42254 83.009 7.26349L82.9954 7.24965Z" fill="#262626"/>
<path d="M97.5705 22.4848L87.2407 21.7033L88.5807 3.49447L98.9993 4.28285L98.5618 10.1819L94.8154 9.89834L94.3437 16.3022L98.008 16.5788L97.5705 22.4779V22.4848ZM103.963 39.7047C101.084 39.4903 98.6848 39.0961 96.798 38.612C94.8701 38.0864 93.3661 37.464 92.245 36.7033C91.0896 35.9357 90.3103 35.0712 89.8796 34.11C89.4489 33.1418 89.2711 32.1113 89.36 30.9357C89.4352 29.8845 89.7634 28.8887 90.3718 28.0035C90.9392 27.1113 91.8348 26.3783 93.0927 25.7905C94.3096 25.2026 95.9298 24.7739 97.9192 24.5042C99.8607 24.269 102.253 24.2414 105.091 24.4488C107.928 24.6563 110.238 25.0505 112.173 25.5761C114.06 26.1432 115.557 26.8071 116.719 27.5747C117.834 28.3354 118.654 29.2068 119.126 30.175C119.556 31.1362 119.775 32.1736 119.7 33.2248C119.611 34.4073 119.29 35.3963 118.722 36.2884C118.114 37.1736 117.177 37.9066 115.96 38.4945C114.744 39.0823 113.123 39.4696 111.182 39.7047C109.199 39.8914 106.806 39.926 103.976 39.7047H103.963ZM104.373 34.1445C107.039 34.3451 108.926 34.3174 109.951 34.0131C110.936 33.7503 111.469 33.2801 111.524 32.6093C111.565 32.0214 111.107 31.4751 110.177 30.9841C109.199 30.5692 107.34 30.2165 104.674 30.0159C102.007 29.8154 100.073 29.8845 99.095 30.1473C98.0627 30.4931 97.5705 30.9634 97.5227 31.5512C97.4748 32.222 97.8918 32.7683 98.8694 33.1763C99.7992 33.6259 101.618 33.9371 104.373 34.1445ZM110.061 11.0463L106.56 10.7835L106.089 17.1459C106.588 17.2289 107.292 17.2773 108.215 17.2635C109.049 17.3257 109.849 17.305 110.519 17.2289L110.095 22.962C109.37 23.121 108.57 23.1833 107.647 23.1556C106.683 23.1694 105.808 23.1003 104.974 23.038L98.7669 22.5678L100.107 4.35892L110.478 5.14039L110.04 11.0394L110.061 11.0463ZM125.066 10.908L124.526 18.1971C124.191 18.1694 123.774 18.1833 123.316 18.1487C122.81 18.1487 122.311 18.1556 121.847 18.204C121.341 18.2524 120.876 18.2593 120.459 18.3147C120.158 18.3769 119.946 18.4461 119.775 18.5152L119.31 24.8361L112.064 24.2898L113.486 5.02974L120.732 5.57607L120.295 11.5166C120.773 11.2538 121.334 11.0878 122.058 10.9288C122.824 10.8181 123.829 10.8112 125.08 10.9011L125.066 10.908Z" fill="#262626"/>
<path d="M137.099 23.1638H126.735V4.89964H137.181V10.8194H133.421V17.244H137.099V23.1638ZM144.742 39.8581C141.857 39.8581 139.437 39.6438 137.516 39.3118C135.554 38.9314 134.009 38.4266 132.84 37.7489C131.629 37.0711 130.795 36.2689 130.29 35.3422C129.79 34.4155 129.538 33.3989 129.538 32.2164C129.538 31.1583 129.79 30.1486 130.331 29.215C130.83 28.2883 131.67 27.4792 132.881 26.8083C134.05 26.1306 135.636 25.5843 137.604 25.1624C139.526 24.7821 141.905 24.5677 144.749 24.5677C147.592 24.5677 149.93 24.7821 151.893 25.1624C153.814 25.5843 155.359 26.1375 156.569 26.8083C157.738 27.4861 158.613 28.2883 159.16 29.215C159.659 30.1417 159.953 31.1583 159.953 32.2164C159.953 33.3989 159.7 34.4155 159.201 35.3422C158.661 36.2689 157.779 37.0781 156.61 37.7489C155.441 38.4266 153.855 38.9314 151.934 39.3118C149.972 39.6507 147.586 39.8581 144.749 39.8581H144.742ZM144.742 34.2772C147.415 34.2772 149.295 34.1113 150.3 33.7309C151.264 33.392 151.763 32.8872 151.763 32.2095C151.763 31.6147 151.264 31.1099 150.3 30.688C149.295 30.3492 147.415 30.1417 144.742 30.1417C142.069 30.1417 140.148 30.3561 139.184 30.688C138.179 31.1099 137.721 31.6147 137.721 32.2095C137.721 32.8872 138.179 33.392 139.184 33.7309C140.148 34.1113 141.98 34.2772 144.742 34.2772ZM148.714 10.8194H145.207V17.2025C145.706 17.244 146.417 17.244 147.339 17.161C148.174 17.161 148.967 17.0781 149.637 16.9467V22.6936C148.926 22.9079 148.133 23.0324 147.216 23.0739C146.253 23.1569 145.377 23.1569 144.543 23.1569H138.315V4.89964H148.72V10.8194H148.714ZM163.672 9.55386V16.8637C163.337 16.8637 162.92 16.9052 162.462 16.9052C161.963 16.9467 161.457 16.9882 160.999 17.0711C160.5 17.1541 160.035 17.1956 159.618 17.2855C159.324 17.3685 159.119 17.4515 158.948 17.5414V23.883H151.681V4.56769H158.948V10.529C159.406 10.2316 159.953 10.0241 160.664 9.80973C161.416 9.64376 162.421 9.55386 163.672 9.55386Z" fill="#262626"/>
<path d="M1.21159 37.1667L1.9089 37.9343C2.67457 38.7711 3.95981 38.8195 4.78018 38.045L22.4386 22.3188C23.2589 21.5443 23.3136 20.2372 22.548 19.4073L21.126 17.8513C20.3603 17.0145 19.0751 16.9661 18.2547 17.7407L1.32097 34.2552C0.500602 35.0297 0.445911 36.3368 1.21159 37.1667Z" fill="#3B47F2"/>
<path d="M20.2989 37.1321H39.8715C40.6191 37.1321 41.2251 36.519 41.2251 35.7628V33.0795C41.2251 32.3233 40.6191 31.7102 39.8715 31.7102L20.2989 31.7102C19.5513 31.7102 18.9453 32.3233 18.9453 33.0795V35.7628C18.9453 36.519 19.5513 37.1321 20.2989 37.1321Z" fill="#3B47F2"/>
<path d="M18.002 40.5H42.1618C42.7999 40.5 43.3171 39.9767 43.3171 39.3313V36.4544C43.3171 35.8089 42.7999 35.2856 42.1618 35.2856H18.002C17.3639 35.2856 16.8466 35.8089 16.8466 36.4544V39.3313C16.8466 39.9767 17.3639 40.5 18.002 40.5Z" fill="#2C32D6"/>
<path d="M35.6807 16.8209L35.7285 16.7794L33.9032 14.7808L26.2123 6.35754L25.0296 5.06432L25.0159 5.07815C23.6008 3.64661 21.3174 3.58437 19.8339 4.98133L15.2536 9.28977C13.7769 10.6798 13.6607 12.9965 14.9596 14.5387L14.9459 14.5526L16.4909 16.24L23.8196 24.269L24.51 25.0297L25.221 25.8112L25.6449 26.2746L25.6927 26.2331C27.1147 27.3465 29.1588 27.2981 30.5261 26.0187L35.1064 21.7102C36.4669 20.4308 36.672 18.3631 35.6807 16.8347V16.8209Z" fill="#C9CAFB"/>
<path d="M25.0298 5.0574L24.8589 4.87068C23.6078 3.49447 21.4885 3.4184 20.1349 4.69087L14.9529 9.56639C13.5993 10.8389 13.5173 12.9827 14.7752 14.3589L14.9461 14.5456L25.0298 5.0574Z" fill="#3B47F2"/>
<path d="M13.9273 12.7545L23.3547 3.88866C24.0588 3.22476 24.0998 2.11134 23.4504 1.39903L23.1427 1.06017C22.4933 0.347858 21.3926 0.306364 20.6885 0.963349L11.2611 9.82919C10.5569 10.4931 10.5159 11.6065 11.1654 12.3188L11.473 12.6577C12.1225 13.37 13.2231 13.4115 13.9273 12.7545Z" fill="#2C32D6"/>
<path d="M25.3306 25.9149L25.5015 26.1017C26.7525 27.4779 28.8718 27.5539 30.2254 26.2815L35.4074 21.4059C36.761 20.1335 36.843 17.9896 35.5851 16.6134L35.4142 16.4267L25.3306 25.9149Z" fill="#3B47F2"/>
<path d="M29.5418 29.8569L38.9692 20.991C39.6733 20.3271 39.7143 19.2137 39.0649 18.5014L38.7572 18.1625C38.1078 17.4502 37.0071 17.4087 36.303 18.0657L26.8756 26.9315C26.1715 27.5954 26.1304 28.7089 26.7799 29.4212L27.0875 29.76C27.737 30.4723 28.8376 30.5138 29.5418 29.8569Z" fill="#2C32D6"/>
</g>
<defs>
<clipPath id="clip0_125_2435">
<rect width="163" height="40" fill="white" transform="translate(0.671631 0.5)"/>
</clipPath>
</defs>
</svg>
