<svg width="24" height="23" viewBox="0 0 24 23" fill="none" xmlns="http://www.w3.org/2000/svg">
<path d="M6.55177 12.0114L0 11.5171L0.849864 0L7.458 0.498653L7.18049 4.2298L4.80434 4.05046L4.50515 8.10093L6.82927 8.27589L6.55177 12.007V12.0114ZM10.606 22.903C8.78049 22.7675 7.25854 22.5181 6.06179 22.2119C4.83903 21.8795 3.8851 21.4858 3.17398 21.0047C2.44119 20.5191 1.94689 19.9724 1.67372 19.3644C1.40055 18.752 1.2878 18.1002 1.34417 17.3566C1.39187 16.6918 1.6 16.0619 1.98591 15.502C2.3458 14.9377 2.91382 14.4741 3.71166 14.1023C4.48347 13.7305 5.51111 13.4593 6.7729 13.2887C8.00434 13.1399 9.52196 13.1225 11.3214 13.2537C13.1209 13.3849 14.5865 13.6342 15.8136 13.9667C17.0103 14.3253 17.9599 14.7453 18.697 15.2308C19.4038 15.7119 19.9241 16.2631 20.2233 16.8755C20.4965 17.4835 20.6352 18.1396 20.5875 18.8045C20.5312 19.5524 20.3274 20.178 19.9675 20.7422C19.5816 21.3021 18.9875 21.7658 18.2157 22.1376C17.4439 22.5094 16.4163 22.7543 15.1848 22.903C13.9274 23.0212 12.4098 23.043 10.6146 22.903H10.606ZM10.8661 19.3862C12.5572 19.5131 13.7539 19.4956 14.4043 19.3031C15.0287 19.1369 15.3669 18.8395 15.4016 18.4152C15.4276 18.0434 15.1371 17.6978 14.5474 17.3872C13.9274 17.1248 12.748 16.9017 11.0569 16.7749C9.36586 16.648 8.13876 16.6918 7.5187 16.858C6.86396 17.0767 6.55176 17.3741 6.52141 17.7459C6.49106 18.1702 6.75556 18.5158 7.37561 18.7739C7.96531 19.0582 9.1187 19.255 10.8661 19.3862ZM14.4737 4.77657L12.2537 4.61035L11.9545 8.63457C12.271 8.68706 12.7176 8.71768 13.303 8.70893C13.832 8.7483 14.3393 8.73518 14.7642 8.68706L14.4954 12.3132C14.0358 12.4138 13.5285 12.4532 12.9431 12.4357C12.3317 12.4445 11.7767 12.4007 11.2477 12.3613L7.31057 12.0639L8.16043 0.546769L14.7382 1.04105L14.4607 4.7722L14.4737 4.77657ZM23.9913 4.68909L23.6488 9.29944C23.4363 9.28195 23.1718 9.2907 22.8813 9.26882C22.5604 9.26882 22.2439 9.2732 21.9491 9.30382C21.6282 9.33444 21.3333 9.33881 21.0688 9.3738C20.8781 9.41317 20.7436 9.45691 20.6352 9.50065L20.3404 13.4986L15.7442 13.1531L16.6461 0.971061L21.2423 1.31662L20.9648 5.07401C21.2683 4.9078 21.6238 4.80282 22.0835 4.70221C22.5691 4.63222 23.2065 4.62785 24 4.68471L23.9913 4.68909Z" fill="#262626"/>
</svg>
