<svg width="28" height="30" viewBox="0 0 28 30" fill="none" xmlns="http://www.w3.org/2000/svg">
<path d="M2.8887 29.5003C2.27759 29.5003 1.75445 29.2808 1.31927 28.8418C0.884093 28.4027 0.666504 27.8749 0.666504 27.2584C0.666504 26.6419 0.886282 26.117 1.32584 25.6837C1.76535 25.2503 2.29371 25.0337 2.91094 25.0337H25.111C25.7221 25.0337 26.2452 25.2516 26.6804 25.6876C27.1156 26.1235 27.3332 26.6476 27.3332 27.2598C27.3332 27.872 27.1134 28.3985 26.6739 28.8392C26.2343 29.28 25.706 29.5003 25.0887 29.5003H2.8887ZM5.55537 19.2559H7.15537L19.311 7.11139L17.6999 5.50029L5.55537 17.6559V19.2559ZM3.33317 20.3656V17.2229C3.33317 17.0745 3.35909 16.9318 3.41094 16.7948C3.4628 16.6578 3.54799 16.53 3.6665 16.4115L19.2888 0.800326C19.5036 0.585503 19.7462 0.426247 20.0165 0.322559C20.2869 0.218847 20.5628 0.166992 20.8443 0.166992C21.1258 0.166992 21.4073 0.218847 21.6887 0.322559C21.9702 0.426247 22.2147 0.589204 22.4221 0.811426L24.0109 2.41143C24.2332 2.61143 24.398 2.85217 24.5054 3.13366C24.6128 3.41513 24.6665 3.69922 24.6665 3.98596C24.6665 4.25478 24.6142 4.5241 24.5097 4.79393C24.4052 5.06375 24.239 5.31032 24.0109 5.53363L8.3998 21.1448C8.28129 21.2633 8.15561 21.3485 8.02277 21.4003C7.8899 21.4522 7.75263 21.4781 7.61094 21.4781H4.45154C4.13467 21.4781 3.86906 21.3715 3.6547 21.1583C3.44035 20.945 3.33317 20.6808 3.33317 20.3656Z" fill="#9D9D9D"/>
</svg>
