<svg width="23" height="23" viewBox="0 0 23 23" fill="none" xmlns="http://www.w3.org/2000/svg">
<path d="M6.45345 12.1197H0V0.216343H6.50453V4.07447H4.16324V8.26161H6.45345V12.1197ZM11.2127 23C9.41626 23 7.90931 22.8603 6.71312 22.6439C5.4914 22.396 4.52934 22.067 3.80141 21.6253C3.04794 21.1836 2.5286 20.6608 2.21359 20.0568C1.90284 19.4529 1.74533 18.7903 1.74533 18.0196C1.74533 17.33 1.90284 16.672 2.23913 16.0635C2.54988 15.4595 3.07348 14.9322 3.82695 14.495C4.55488 14.0533 5.54248 13.6972 6.76847 13.4223C7.96465 13.1744 9.44605 13.0347 11.2169 13.0347C12.9878 13.0347 14.4436 13.1744 15.6654 13.4223C16.8616 13.6972 17.8236 14.0578 18.5771 14.495C19.305 14.9367 19.8499 15.4595 20.1905 16.0635C20.5012 16.6675 20.6843 17.33 20.6843 18.0196C20.6843 18.7903 20.5267 19.4529 20.216 20.0568C19.8797 20.6608 19.3306 21.1881 18.6026 21.6253C17.8747 22.067 16.8871 22.396 15.6909 22.6439C14.4692 22.8648 12.9835 23 11.2169 23H11.2127ZM11.2127 19.3627C12.8771 19.3627 14.0478 19.2546 14.6735 19.0067C15.2737 18.7858 15.5845 18.4568 15.5845 18.0151C15.5845 17.6275 15.2737 17.2985 14.6735 17.0235C14.0478 16.8027 12.8771 16.6675 11.2127 16.6675C9.54822 16.6675 8.35203 16.8072 7.75181 17.0235C7.12604 17.2985 6.84083 17.6275 6.84083 18.0151C6.84083 18.4568 7.12604 18.7858 7.75181 19.0067C8.35203 19.2546 9.49288 19.3627 11.2127 19.3627ZM13.6859 4.07447H11.5021V8.23457C11.8129 8.26161 12.2556 8.26161 12.8303 8.20752C13.3496 8.20752 13.8434 8.15344 14.2606 8.0678V11.8132C13.8179 11.953 13.3241 12.0341 12.7537 12.0611C12.1534 12.1152 11.6086 12.1152 11.0892 12.1152H7.21118V0.216343H13.6902V4.07447H13.6859ZM23 3.24966V8.01372C22.7914 8.01372 22.5317 8.04076 22.2465 8.04076C21.9358 8.0678 21.6208 8.09485 21.3356 8.14893C21.0248 8.20302 20.7353 8.23006 20.4757 8.28865C20.2926 8.34274 20.1649 8.39683 20.0585 8.45542V12.5885H15.5334V0H20.0585V3.88517C20.3437 3.69136 20.6843 3.55614 21.127 3.41642C21.5952 3.30825 22.221 3.24966 23 3.24966Z" fill="#262626"/>
</svg>
