<svg width="164" height="41" viewBox="0 0 164 41" fill="none" xmlns="http://www.w3.org/2000/svg">
<g clip-path="url(#clip0_111_2934)">
<path d="M58.038 24.4918L47.7561 25.8057L45.5 7.69371L55.864 6.37282L56.5955 12.2442L52.8628 12.7214L53.6559 19.0976L57.3065 18.6342L58.038 24.5056V24.4918ZM67.691 40.0865C64.8334 40.453 62.3996 40.5499 60.4512 40.453C58.455 40.3216 56.8621 40.0174 55.6179 39.4918C54.3327 38.9731 53.4029 38.2815 52.7945 37.424C52.1792 36.5665 51.81 35.5914 51.6596 34.4157C51.5297 33.3645 51.6528 32.3272 52.0766 31.3382C52.4595 30.3493 53.191 29.4503 54.3053 28.6273C55.3855 27.8113 56.8895 27.0644 58.7831 26.3936C60.6426 25.7712 62.9807 25.2594 65.7973 24.8998C68.6139 24.5402 70.9656 24.4503 72.9618 24.5817C74.9239 24.7546 76.5236 25.1073 77.8088 25.6259C79.053 26.1515 80.0238 26.8362 80.6733 27.6868C81.2885 28.5443 81.6987 29.5125 81.8286 30.5637C81.9722 31.7394 81.8491 32.7767 81.4663 33.7587C81.0424 34.7477 80.2699 35.6605 79.1966 36.4766C78.1164 37.2926 76.6056 37.998 74.7461 38.6204C72.8388 39.2013 70.5007 39.7131 67.6841 40.0727L67.691 40.0865ZM67.0005 34.554C69.653 34.2151 71.4988 33.8071 72.4422 33.3023C73.3515 32.8459 73.789 32.2788 73.707 31.608C73.6318 31.0201 73.0712 30.5844 72.0662 30.2802C71.0271 30.0727 69.1403 30.1003 66.4878 30.4392C63.8352 30.7781 61.9552 31.2276 61.046 31.6909C60.1026 32.2373 59.7129 32.7974 59.7813 33.3853C59.8633 34.0561 60.3829 34.4987 61.422 34.7131C62.4201 34.969 64.2659 34.9067 67.0005 34.554ZM68.0396 10.7781L64.5599 11.2207L65.3461 17.5554C65.852 17.5346 66.5561 17.4447 67.4517 17.2442C68.2789 17.1405 69.0582 16.9537 69.7077 16.7463L70.4187 22.4517C69.7419 22.749 68.9694 22.9772 68.0601 23.1363C67.1167 23.3438 66.2485 23.4544 65.4144 23.5582L59.2412 24.3465L56.9852 6.23451L67.3081 4.92054L68.0396 10.7919V10.7781ZM82.7173 7.63147L83.6197 14.886C83.2916 14.9275 82.8814 15.0243 82.4234 15.0796C81.9312 15.1833 81.4389 15.2871 80.9946 15.4323C80.5092 15.5775 80.058 15.6813 79.6546 15.8196C79.3743 15.9371 79.1761 16.0478 79.0257 16.1584L79.8119 22.4517L72.5995 23.3714L70.2136 4.20823L77.426 3.28845L78.1643 9.20131C78.5813 8.84862 79.0941 8.57199 79.7777 8.27462C80.5024 8.01183 81.4868 7.80436 82.731 7.6453L82.7173 7.63147Z" fill="#262626"/>
<path d="M97.2925 22.8667L86.9627 22.0852L88.3027 3.87634L98.7213 4.66472L98.2838 10.5638L94.5375 10.2802L94.0658 16.6841L97.7301 16.9607L97.2925 22.8597V22.8667ZM103.685 40.0866C100.806 39.8722 98.4069 39.478 96.52 38.9939C94.5922 38.4683 93.0881 37.8459 91.967 37.0852C90.8116 36.3176 90.0323 35.4531 89.6016 34.4918C89.1709 33.5236 88.9931 32.4932 89.082 31.3176C89.1572 30.2664 89.4854 29.2705 90.0938 28.3853C90.6612 27.4932 91.5568 26.7602 92.8147 26.1723C94.0316 25.5845 95.6518 25.1557 97.6412 24.886C99.5827 24.6509 101.975 24.6232 104.813 24.8307C107.65 25.0382 109.96 25.4324 111.895 25.9579C113.782 26.525 115.279 27.1889 116.441 27.9566C117.556 28.7173 118.376 29.5887 118.848 30.5568C119.278 31.5181 119.497 32.5555 119.422 33.6066C119.333 34.7892 119.012 35.7781 118.444 36.6703C117.836 37.5555 116.899 38.2885 115.682 38.8763C114.466 39.4642 112.845 39.8514 110.904 40.0866C108.921 40.2733 106.528 40.3079 103.698 40.0866H103.685ZM104.095 34.5264C106.761 34.727 108.648 34.6993 109.673 34.395C110.658 34.1322 111.191 33.662 111.246 32.9911C111.287 32.4033 110.829 31.857 109.899 31.366C108.921 30.951 107.062 30.5983 104.396 30.3978C101.729 30.1972 99.7946 30.2664 98.817 30.5292C97.7847 30.875 97.2925 31.3452 97.2447 31.9331C97.1968 32.6039 97.6138 33.1502 98.5914 33.5582C99.5212 34.0077 101.34 34.3189 104.095 34.5264ZM109.783 11.4282L106.282 11.1654L105.811 17.5278C106.31 17.6108 107.014 17.6592 107.937 17.6454C108.771 17.7076 109.571 17.6869 110.241 17.6108L109.817 23.3438C109.092 23.5029 108.292 23.5651 107.369 23.5375C106.405 23.5513 105.53 23.4822 104.696 23.4199L98.4889 22.9496L99.8288 4.7408L110.2 5.52226L109.762 11.4213L109.783 11.4282ZM124.788 11.2899L124.248 18.579C123.913 18.5513 123.496 18.5651 123.038 18.5306C122.532 18.5306 122.033 18.5375 121.569 18.5859C121.063 18.6343 120.598 18.6412 120.181 18.6965C119.88 18.7588 119.668 18.8279 119.497 18.8971L119.032 25.218L111.786 24.6716L113.208 5.41161L120.454 5.95795L120.017 11.8985C120.495 11.6357 121.056 11.4697 121.78 11.3106C122.546 11.2 123.551 11.1931 124.802 11.283L124.788 11.2899Z" fill="#262626"/>
<path d="M136.821 23.5457H126.457V5.28154H136.903V11.2013H133.143V17.6259H136.821V23.5457ZM144.464 40.24C141.579 40.24 139.159 40.0257 137.238 39.6937C135.275 39.3133 133.73 38.8085 132.561 38.1308C131.351 37.453 130.517 36.6508 130.011 35.7241C129.512 34.7974 129.259 33.7808 129.259 32.5983C129.259 31.5402 129.512 30.5305 130.052 29.5969C130.552 28.6702 131.392 27.8611 132.602 27.1902C133.771 26.5125 135.358 25.9662 137.326 25.5443C139.247 25.164 141.627 24.9496 144.47 24.9496C147.314 24.9496 149.652 25.164 151.614 25.5443C153.535 25.9662 155.081 26.5194 156.291 27.1902C157.46 27.868 158.335 28.6702 158.882 29.5969C159.381 30.5236 159.675 31.5402 159.675 32.5983C159.675 33.7808 159.422 34.7974 158.923 35.7241C158.382 36.6508 157.501 37.46 156.332 38.1308C155.163 38.8085 153.577 39.3133 151.655 39.6937C149.693 40.0326 147.308 40.24 144.47 40.24H144.464ZM144.464 34.6591C147.137 34.6591 149.017 34.4932 150.022 34.1128C150.986 33.7739 151.485 33.2691 151.485 32.5914C151.485 31.9966 150.986 31.4918 150.022 31.0699C149.017 30.7311 147.137 30.5236 144.464 30.5236C141.791 30.5236 139.87 30.738 138.906 31.0699C137.901 31.4918 137.443 31.9966 137.443 32.5914C137.443 33.2691 137.901 33.7739 138.906 34.1128C139.87 34.4932 141.702 34.6591 144.464 34.6591ZM148.436 11.2013H144.928V17.5844C145.428 17.6259 146.139 17.6259 147.061 17.5429C147.895 17.5429 148.688 17.46 149.358 17.3286V23.0754C148.647 23.2898 147.854 23.4143 146.938 23.4558C145.974 23.5388 145.099 23.5388 144.265 23.5388H138.037V5.28154H148.442V11.2013H148.436ZM163.394 9.93575V17.2456C163.059 17.2456 162.642 17.2871 162.184 17.2871C161.684 17.3286 161.179 17.3701 160.721 17.453C160.221 17.536 159.757 17.5775 159.34 17.6674C159.046 17.7504 158.841 17.8334 158.67 17.9233V24.2649H151.403V4.94958H158.67V10.9109C159.128 10.6135 159.675 10.406 160.386 10.1916C161.138 10.0257 162.142 9.93575 163.394 9.93575Z" fill="#262626"/>
<path d="M0.933619 37.5485L1.63093 38.3162C2.39661 39.153 3.68185 39.2014 4.50221 38.4268L22.1606 22.7007C22.981 21.9261 23.0357 20.6191 22.27 19.7892L20.848 18.2332C20.0823 17.3964 18.7971 17.348 17.9767 18.1225L1.043 34.6371C0.222635 35.4116 0.167944 36.7187 0.933619 37.5485Z" fill="#3B47F2"/>
<path d="M20.0208 37.5139H39.5934C40.341 37.5139 40.947 36.9009 40.947 36.1446V33.4614C40.947 32.7051 40.341 32.0921 39.5934 32.0921H20.0208C19.2732 32.0921 18.6672 32.7051 18.6672 33.4614V36.1446C18.6672 36.9009 19.2732 37.5139 20.0208 37.5139Z" fill="#3B47F2"/>
<path d="M17.7238 40.8818H41.8836C42.5217 40.8818 43.0389 40.3586 43.0389 39.7131V36.8362C43.0389 36.1907 42.5217 35.6675 41.8836 35.6675H17.7238C17.0857 35.6675 16.5684 36.1907 16.5684 36.8362V39.7131C16.5684 40.3586 17.0857 40.8818 17.7238 40.8818Z" fill="#2C32D6"/>
<path d="M35.4027 17.2028L35.4506 17.1613L33.6252 15.1627L25.9343 6.73942L24.7516 5.4462L24.7379 5.46003C23.3228 4.02849 21.0394 3.96625 19.556 5.36321L14.9756 9.67165C13.4989 11.0617 13.3827 13.3784 14.6816 14.9206L14.6679 14.9344L16.213 16.6219L23.5416 24.6509L24.232 25.4116L24.943 26.1931L25.3669 26.6564L25.4147 26.6149C26.8367 27.7284 28.8808 27.6799 30.2481 26.4006L34.8284 22.0921C36.1889 20.8127 36.394 18.745 35.4027 17.2166V17.2028Z" fill="#C9CAFB"/>
<path d="M24.7516 5.43919L24.5807 5.25247C23.3296 3.87626 21.2104 3.80019 19.8568 5.07266L14.6748 9.94818C13.3212 11.2207 13.2391 13.3645 14.497 14.7407L14.6679 14.9274L24.7516 5.43919Z" fill="#3B47F2"/>
<path d="M13.6493 13.1363L23.0767 4.27048C23.7808 3.60658 23.8219 2.49316 23.1724 1.78085L22.8648 1.44199C22.2153 0.729679 21.1146 0.688185 20.4105 1.34517L10.9831 10.211C10.279 10.8749 10.238 11.9883 10.8874 12.7006L11.195 13.0395C11.8445 13.7518 12.9452 13.7933 13.6493 13.1363Z" fill="#2C32D6"/>
<path d="M25.0524 26.2967L25.2233 26.4834C26.4744 27.8596 28.5937 27.9357 29.9473 26.6632L35.1292 21.7877C36.4828 20.5152 36.5649 18.3714 35.307 16.9952L35.1361 16.8085L25.0524 26.2967Z" fill="#3B47F2"/>
<path d="M29.2636 30.2387L38.691 21.3729C39.3952 20.709 39.4362 19.5956 38.7867 18.8833L38.4791 18.5444C37.8296 17.8321 36.729 17.7906 36.0248 18.4476L26.5974 27.3134C25.8933 27.9773 25.8523 29.0907 26.5017 29.8031L26.8094 30.1419C27.4588 30.8542 28.5595 30.8957 29.2636 30.2387Z" fill="#2C32D6"/>
</g>
<defs>
<clipPath id="clip0_111_2934">
<rect width="163" height="40" fill="white" transform="translate(0.393555 0.881836)"/>
</clipPath>
</defs>
</svg>
