<svg width="24" height="24" viewBox="0 0 24 24" fill="none" xmlns="http://www.w3.org/2000/svg">
<path d="M7.89383 13.6796L1.42037 14.5274L0 2.84212L6.52511 1.98993L6.98565 5.77793L4.63558 6.08579L5.13486 10.1995L7.43328 9.90056L7.89383 13.6886V13.6796ZM13.9713 23.7408C12.1722 23.9773 10.6399 24.0398 9.4132 23.9773C8.15638 23.8925 7.15351 23.6962 6.37016 23.3571C5.56097 23.0225 4.97561 22.5763 4.59254 22.0231C4.20516 21.4698 3.97274 20.8407 3.87805 20.0822C3.79627 19.404 3.87374 18.7348 4.1406 18.0967C4.38163 17.4587 4.84218 16.8787 5.54376 16.3477C6.22382 15.8213 7.17073 15.3394 8.36299 14.9066C9.53372 14.5051 11.0057 14.1749 12.7791 13.9429C14.5524 13.7109 16.033 13.6529 17.2898 13.7376C18.5251 13.8492 19.5323 14.0767 20.3415 14.4114C21.1248 14.7505 21.736 15.1922 22.1449 15.741C22.5323 16.2942 22.7905 16.9188 22.8723 17.597C22.9627 18.3555 22.8852 19.0248 22.6442 19.6583C22.3773 20.2964 21.891 20.8853 21.2152 21.4118C20.5351 21.9383 19.5839 22.3934 18.4132 22.7949C17.2123 23.1697 15.7403 23.4999 13.967 23.7319L13.9713 23.7408ZM13.5366 20.1714C15.2066 19.9528 16.3687 19.6896 16.9627 19.3639C17.5352 19.0694 17.8106 18.7035 17.759 18.2707C17.7116 17.8915 17.3587 17.6104 16.726 17.4141C16.0717 17.2802 14.8838 17.2981 13.2138 17.5167C11.5438 17.7353 10.3601 18.0254 9.78766 18.3243C9.19369 18.6768 8.94835 19.0382 8.99139 19.4174C9.04304 19.8502 9.37016 20.1357 10.0244 20.2741C10.6528 20.4391 11.8149 20.399 13.5366 20.1714ZM14.1908 4.83204L12 5.11759L12.495 9.20453C12.8135 9.19115 13.2568 9.13314 13.8207 9.00375C14.3415 8.93683 14.8321 8.81636 15.241 8.68251L15.6887 12.3634C15.2626 12.5553 14.7762 12.7025 14.2037 12.8051C13.6098 12.939 13.0631 13.0104 12.538 13.0773L8.65136 13.5859L7.23099 1.90069L13.7303 1.05297L14.1908 4.84097V4.83204ZM23.4319 2.80196L24 7.48231C23.7934 7.50908 23.5352 7.57154 23.2468 7.60724C22.9369 7.67416 22.627 7.74109 22.3472 7.83478C22.0416 7.92848 21.7575 7.99541 21.5036 8.08464C21.3271 8.16049 21.2023 8.23188 21.1076 8.30326L21.6026 12.3634L17.0617 12.9568L15.5595 0.593409L20.1004 0L20.5653 3.81477C20.8278 3.58722 21.1506 3.40876 21.5811 3.2169C22.0373 3.04736 22.6571 2.9135 23.4405 2.81088L23.4319 2.80196Z" fill="#262626"/>
</svg>
