<svg width="122" height="38" viewBox="0 0 122 38" fill="none" xmlns="http://www.w3.org/2000/svg">
<path d="M12.7469 21.6301L2.46493 22.944L0.208923 4.83201L10.5729 3.51113L11.3044 9.3825L7.57171 9.85968L8.36473 16.2359L12.0154 15.7725L12.7469 21.6439V21.6301ZM22.3998 37.2248C19.5422 37.5914 17.1085 37.6882 15.1601 37.5914C13.1639 37.46 11.571 37.1557 10.3268 36.6301C9.04153 36.1114 8.11179 35.4198 7.50335 34.5623C6.88807 33.7048 6.51891 32.7297 6.36851 31.554C6.23861 30.5028 6.36167 29.4655 6.78553 28.4766C7.16836 27.4876 7.89986 26.5886 9.01419 25.7656C10.0943 24.9496 11.5983 24.2027 13.492 23.5319C15.3515 22.9095 17.6896 22.3977 20.5062 22.0381C23.3227 21.6785 25.6745 21.5886 27.6707 21.72C29.6327 21.8929 31.2324 22.2456 32.5177 22.7642C33.7619 23.2898 34.7327 23.9745 35.3821 24.8251C35.9974 25.6826 36.4076 26.6508 36.5375 27.702C36.6811 28.8777 36.558 29.915 36.1752 30.897C35.7513 31.886 34.9788 32.7988 33.9055 33.6149C32.8253 34.4309 31.3145 35.1363 29.455 35.7587C27.5476 36.3396 25.2096 36.8514 22.393 37.211L22.3998 37.2248ZM21.7094 31.6923C24.3619 31.3535 26.2077 30.9454 27.1511 30.4406C28.0604 29.9842 28.4979 29.4171 28.4159 28.7463C28.3407 28.1584 27.7801 27.7227 26.7751 27.4185C25.736 27.211 23.8492 27.2387 21.1966 27.5775C18.5441 27.9164 16.6641 28.3659 15.7549 28.8292C14.8114 29.3756 14.4218 29.9357 14.4901 30.5236C14.5722 31.1944 15.0917 31.637 16.1309 31.8514C17.129 32.1073 18.9748 32.045 21.7094 31.6923ZM22.7485 7.91638L19.2688 8.35898L20.055 14.6937C20.5609 14.673 21.265 14.5831 22.1606 14.3825C22.9878 14.2788 23.7671 14.092 24.4166 13.8846L25.1276 19.59C24.4508 19.8873 23.6782 20.1156 22.769 20.2746C21.8256 20.4821 20.9574 20.5927 20.1233 20.6965L13.9501 21.4848L11.6941 3.37282L22.017 2.05885L22.7485 7.93022V7.91638ZM37.4262 4.76977L38.3286 12.0243C38.0005 12.0658 37.5903 12.1626 37.1323 12.2179C36.64 12.3216 36.1478 12.4254 35.7034 12.5706C35.2181 12.7158 34.7669 12.8196 34.3635 12.9579C34.0832 13.0754 33.885 13.1861 33.7346 13.2967L34.5208 19.59L27.3084 20.5097L24.9225 1.34654L32.1349 0.426758L32.8732 6.33962C33.2902 5.98692 33.8029 5.7103 34.4866 5.41293C35.2112 5.15013 36.1957 4.94266 37.4399 4.7836L37.4262 4.76977Z" fill="#262626"/>
<path d="M52.6585 20.005L42.3287 19.2235L43.6686 1.01465L54.0873 1.80303L53.6497 7.70206L49.9034 7.41852L49.4317 13.8224L53.096 14.099L52.6585 19.9981V20.005ZM59.0505 37.2249C56.1724 37.0105 53.7728 36.6163 51.8859 36.1322C49.9581 35.6066 48.4541 34.9842 47.3329 34.2235C46.1776 33.4559 45.3982 32.5914 44.9675 31.6301C44.5368 30.662 44.3591 29.6315 44.448 28.4559C44.5232 27.4047 44.8513 26.4088 45.4597 25.5236C46.0272 24.6315 46.9227 23.8985 48.1806 23.3106C49.3975 22.7228 51.0177 22.294 53.0071 22.0243C54.9486 21.7892 57.3414 21.7615 60.1785 21.969C63.0156 22.1765 65.3263 22.5707 67.261 23.0963C69.1478 23.6633 70.645 24.3272 71.8072 25.0949C72.9215 25.8556 73.7419 26.727 74.2136 27.6951C74.6443 28.6564 74.863 29.6938 74.7878 30.7449C74.699 31.9275 74.3777 32.9164 73.8102 33.8086C73.2018 34.6938 72.2652 35.4268 71.0483 36.0146C69.8315 36.6025 68.2112 36.9898 66.2697 37.2249C64.2872 37.4116 61.8944 37.4462 59.0642 37.2249H59.0505ZM59.4607 31.6647C62.1269 31.8653 64.0137 31.8376 65.0392 31.5333C66.0236 31.2705 66.5568 30.8003 66.6115 30.1294C66.6525 29.5416 66.1945 28.9953 65.2648 28.5043C64.2872 28.0893 62.4277 27.7366 59.7615 27.5361C57.0953 27.3355 55.1606 27.4047 54.183 27.6675C53.1507 28.0133 52.6585 28.4835 52.6106 29.0714C52.5627 29.7422 52.9798 30.2885 53.9574 30.6965C54.8871 31.146 56.7056 31.4573 59.4607 31.6647ZM65.1485 8.56652L61.6483 8.30372L61.1766 14.6661C61.6757 14.7491 62.3798 14.7975 63.3027 14.7837C64.1368 14.8459 64.9366 14.8252 65.6066 14.7491L65.1827 20.4821C64.4581 20.6412 63.6582 20.7034 62.7353 20.6758C61.7714 20.6896 60.8963 20.6205 60.0623 20.5582L53.8548 20.088L55.1948 1.8791L65.5656 2.66057L65.128 8.5596L65.1485 8.56652ZM80.1544 8.4282L79.6143 15.7173C79.2794 15.6896 78.8623 15.7034 78.4043 15.6689C77.8984 15.6689 77.3993 15.6758 76.9345 15.7242C76.4286 15.7726 75.9637 15.7795 75.5467 15.8348C75.2459 15.8971 75.034 15.9662 74.8631 16.0354L74.3982 22.3563L67.1516 21.8099L68.5736 2.54992L75.8201 3.09625L75.3826 9.03678C75.8612 8.77399 76.4217 8.60801 77.1464 8.44895C77.9121 8.3383 78.917 8.33138 80.1681 8.42129L80.1544 8.4282Z" fill="#262626"/>
<path d="M94.532 20.684H84.168V2.41984H94.614V8.33962H90.854V14.7642H94.532V20.684ZM102.175 37.3783C99.2901 37.3783 96.87 37.164 94.949 36.832C92.987 36.4516 91.442 35.9468 90.2729 35.2691C89.0629 34.5913 88.2289 33.7891 87.723 32.8624C87.2239 31.9357 86.971 30.9191 86.971 29.7366C86.971 28.6785 87.2239 27.6688 87.764 26.7352C88.263 25.8085 89.1039 24.9994 90.3139 24.3286C91.483 23.6508 93.069 23.1045 95.0379 22.6826C96.9589 22.3023 99.338 22.0879 102.182 22.0879C105.026 22.0879 107.364 22.3023 109.326 22.6826C111.247 23.1045 112.792 23.6577 114.002 24.3286C115.171 25.0063 116.046 25.8085 116.593 26.7352C117.092 27.6619 117.386 28.6785 117.386 29.7366C117.386 30.9191 117.133 31.9357 116.634 32.8624C116.094 33.7891 115.212 34.5983 114.043 35.2691C112.874 35.9468 111.288 36.4516 109.367 36.832C107.405 37.1709 105.019 37.3783 102.182 37.3783H102.175ZM102.175 31.7974C104.848 31.7974 106.728 31.6315 107.733 31.2511C108.697 30.9122 109.196 30.4074 109.196 29.7297C109.196 29.1349 108.697 28.6301 107.733 28.2082C106.728 27.8694 104.848 27.6619 102.175 27.6619C99.5021 27.6619 97.581 27.8763 96.6171 28.2082C95.6121 28.6301 95.1541 29.1349 95.1541 29.7297C95.1541 30.4074 95.6121 30.9122 96.6171 31.2511C97.581 31.6315 99.4132 31.7974 102.175 31.7974ZM106.147 8.33962H102.64V14.7227C103.139 14.7642 103.85 14.7642 104.773 14.6813C105.607 14.6813 106.4 14.5983 107.07 14.4669V20.2138C106.359 20.4281 105.566 20.5526 104.65 20.5941C103.686 20.6771 102.811 20.6771 101.977 20.6771H95.7489V2.41984H106.154V8.33962H106.147ZM121.105 7.07406V14.3839C120.77 14.3839 120.353 14.4254 119.895 14.4254C119.396 14.4669 118.89 14.5084 118.432 14.5913C117.933 14.6743 117.468 14.7158 117.051 14.8057C116.757 14.8887 116.552 14.9717 116.381 15.0616V21.4032H109.114V2.08789H116.381V8.04916C116.839 7.75179 117.386 7.54432 118.097 7.32994C118.849 7.16396 119.854 7.07406 121.105 7.07406Z" fill="#262626"/>
</svg>
